<svg id="Layer_1" data-name="Layer 1" xmlns="http://www.w3.org/2000/svg" viewBox="0 0 162.68 162.68"><defs><style>.cls-1{fill:#90b8d6;stroke:#edeeef;stroke-miterlimit:10;stroke-width:6px;}.cls-2{fill:#e8e9ea;}.cls-3{fill:#b5b5b6;}</style></defs><title>casual</title><circle class="cls-1" cx="81.34" cy="81.34" r="78.34"/><path class="cls-2" d="M580.38,1186.3c-13.24-5.16-22.11-8.16-23.74-8.7a1.55,1.55,0,0,1-.5-0.27c-0.7-.57-1.68-1.34-2.84-2.24l-9.17,9.46-3.38-3.28,8.81-9.08-3.77-2.93-8.44,8.71-3.38-3.28,8.09-8.35c-1.27-1-2.53-2-3.74-3l-7.76,8-3.38-3.28,7.48-7.71a61.5,61.5,0,0,1-5-4.45,1.65,1.65,0,0,0-2.36-.06c-4.53,4.4-24.54,16.2-37.83,1.31-0.87-1-2.55-.21-2.69,1.1-1.16,10.69-4.73,45.67-1.89,46.62,3.09,1,83.79.16,96.12,0a1.65,1.65,0,0,0,1.64-1.6C582.8,1199,582.92,1187.29,580.38,1186.3Z" transform="translate(-446.05 -1101.27)"/><path class="cls-3" d="M530.55,1171.37l7.76-8-2.49-2-1.18-1-7.48,7.71Z" transform="translate(-446.05 -1101.27)"/><path class="cls-3" d="M537.34,1178l8.44-8.71-3.73-2.92-8.09,8.35Z" transform="translate(-446.05 -1101.27)"/><path class="cls-3" d="M544.13,1184.54l9.17-9.46-3.75-2.91-8.81,9.08Z" transform="translate(-446.05 -1101.27)"/><path class="cls-3" d="M483.84,1195.12s-0.74,9.59,1.07,9.78,96.21,1.11,97-.24,0.83-5.19.83-5.19S484.78,1198.54,483.84,1195.12Z" transform="translate(-446.05 -1101.27)"/></svg>