<svg id="Layer_1" data-name="Layer 1" xmlns="http://www.w3.org/2000/svg" viewBox="0 0 637.47 455.61"><defs><style>.cls-1{fill:#f9f9fa;}.cls-2{fill:#cfcece;}</style></defs><title>FF</title><path class="cls-1" d="M-1116.15,640.06s-0.61-7.56,27.27-75.92c0,0,2.33-8.05-12-10.67s-15.69,1.39-15.49,4.56-22,50.75-34.84,124.12,0.54,79,3.49,79.86,23.65,11.41,23.69,5.82S-1135.43,703.68-1116.15,640.06Z" transform="translate(1218.49 -548.9)"/><path class="cls-1" d="M-1029.44,832.37s-0.27-5.5,17.74-55.7c0,0,1.54-5.9-7.21-7.61s-7.14,1.23-7.06,3.53-16.67,37.29-25.52,90.94-0.76,57.57,1,58.15,14.32,8,14.42,3.91S-1042.12,879-1029.44,832.37Z" transform="translate(1218.49 -548.9)"/><path class="cls-1" d="M-656.77,846.73s-0.36-5.07,17.71-51c0,0,1.52-5.41-7.64-7.11s-7.43,1-7.32,3.15-16.85,34.08-25.32,83.34,0.05,53,1.93,53.55,15.07,7.57,15.11,3.81S-669.32,889.47-656.77,846.73Z" transform="translate(1218.49 -548.9)"/><path class="cls-1" d="M-1027.41,593c46.64,1.45,68.07,7.17,68.48,6.34s7.86-17,3.31-18-127.54-18.86-236.86,4.91c0,0-26.63,3.83-26,9.66s-1.58,18.77,3.15,19.72,50,6.63,50,6.63-3.15-2.21.47-1.1,9.94,0.79,6.15-.95,1.74-1.89,6-.79,9.31-1.1-4.73-5.36-28.39-8-28.39-8-0.63-.63,6.15-1.42S-1102,590.68-1027.41,593Z" transform="translate(1218.49 -548.9)"/><path class="cls-1" d="M-1060.73,693.93c2.37-2.56,9.27-7.7,12-7.17s5.37,0.72,1.25-8.6-11.37-19.35-26.6-4.66-34.67,47.29-30.19,67.36c0,0-.18,8.42,10.75,13.44s9.67,9,15,7.88,21.24-23.43,20.94-21.26c-0.21,1.49-9.63,12.33,10.73,21.44,7.12,3.19,86.09-82.65,86.09-82.65s-2.76-5-5.44-2.62-76.12,77.44-75.58,71.35,17.72-47.52,19.87-53.26-8.42-33.68-18.09-14.87-7.52,18.81-9.67,21.5-36.9,52.13-35.11,37.8S-1069.5,703.39-1060.73,693.93Z" transform="translate(1218.49 -548.9)"/><path class="cls-1" d="M-771.49,863.48s3.89-6,6-5.55,4.16,0.56,1-6.66-4.86-15-16.65-3.61-30.81,36.63-27.34,52.18c0,0-.14,6.52,8.33,10.41s7.49,6.94,11.66,6.11,19.67-21.4,19.44-19.73c-0.16,1.15-10.68,12.81,5.09,19.86,5.52,2.47,64.9-56.28,64.9-56.28s0.58-7.94-1.5-6.14-61.44,59.09-61,54.37,12.63-39.55,14.3-44-3.89-26.09-11.38-11.52-5.83,14.57-7.49,16.65-28.59,40.38-27.2,29.28S-771.49,863.48-771.49,863.48Z" transform="translate(1218.49 -548.9)"/><path class="cls-1" d="M-964.34,683.54s5.2-3.78,4.55-7.58,0.16-13.18-16.73-10.76-38.6,17.06-36.53,24.13,13.1,19.3,15.85,19.65,30.16-6,31.88-2.07-6.2,21.71-16.89,26.37-10.34,6-8.79,2.59,3.79-1.9,3.27-5,4.42-15.31,1.26-15.15-40.72,27.56-33.66,34.28,41.36,10.34,44.81,9.13,28.61-16.72,29-22.75,0.69-16.89-5.34-26.37-6.38-14-18.44-14.82-22.4-.52-21.89-1.55,18.61-14.65,25.85-16.54l-8.27,11.2Z" transform="translate(1218.49 -548.9)"/><path class="cls-1" d="M-701.4,862.41s4-2.93,3.53-5.87,0.12-10.21-13-8.34-29.9,13.22-28.3,18.69,10.15,15,12.28,15.22,23.36-4.67,24.7-1.6-4.81,16.82-13.08,20.42-8,4.67-6.81,2,2.94-1.47,2.54-3.87,3.42-11.86,1-11.74-31.55,21.35-26.07,26.55,32,8,34.71,7.08,22.16-12.95,22.43-17.62,0.53-13.08-4.14-20.42-4.94-10.81-14.28-11.48-17.35-.4-17-1.2,14.42-11.35,20-12.82l-6.41,8.68Z" transform="translate(1218.49 -548.9)"/><path class="cls-1" d="M-943,682.09s0.43,3.48,1.25,6.93c0.89,3.74,2.23,7.44,4,6.59,3.32-1.62,48.3-61.37,59-88.61,10.6-26.91,10.85-27.88,7.6-36.51s-13.22-24.8-17.27-21-24.79,20.18-39.77,76S-949.88,745-948.49,746.14s13.15,9.63,15.43,9.79,6.33-66.65,18.28-111.67,26.5-66.81,26-64.27S-891.53,605.16-943,682.09Z" transform="translate(1218.49 -548.9)"/><path class="cls-1" d="M-929.44,703.33s29.28-36.83,31.75-37.83,12.95,10.09,12.95,14.72-23.12,55.48-19.11,64.42c0,0,13.87-16.7,19.11-25s-1.85,19.17-6.16,25-9.52,15.82-15.66,13.5c-8.16-3.08-15.65-9.82-14.11-15.19,2.65-9.26,8.2-33.11,9.43-35.13S-926,730.11-931.12,749C-936.79,770-929.44,703.33-929.44,703.33Z" transform="translate(1218.49 -548.9)"/><path class="cls-1" d="M-849,685s-0.17-.5-0.46-1.36c-1.88-5.39-9.07-24.74-13.47-19.17-5.1,6.46-31,72.4-27.37,81s16,15.18,20.48,14.08c4.1-1,31.75-39.79,31.75-39.79l-7.19-3.35s-26.16,34-25.48,31.26S-861.6,708.23-849,685Z" transform="translate(1218.49 -548.9)"/><path class="cls-1" d="M-846.31,658.41s10.19-20.46,8.83-24.54-13.25-21.06-16-14.95-13.44,23.78-11.82,27.86,17.59,21.71,18.27,16.67Z" transform="translate(1218.49 -548.9)"/><path class="cls-1" d="M-776,701.28c-4.39-13.6-11.41-36.42-27.64-29.4S-837,690.31-844.91,708.3c0,0-5.7-2.19-6.14,7s7.9,14.92,8.34,18.43,0,15.8,16.24,22.82c0,0,7.81,8.34,13.34,7.46s18.69-10.53,26.59-30.28C-786.55,733.75-771.63,714.88-776,701.28Zm-43.44,44.32c-11.41,4.83,5.7-42.12,12.29-38.61s6.58,6.14,6.58,3.51,3.51-6.58-7.9-21.5c0,0,15.8-5.27,17.55,0S-808,740.77-819.46,745.6Z" transform="translate(1218.49 -548.9)"/><path class="cls-1" d="M-947.42,870.82c-3.75-11.61-9.74-31.09-23.6-25.1s-28.47,15.73-35.21,31.09c0,0-4.87-1.87-5.24,6s6.74,12.74,7.12,15.73,0,13.49,13.86,19.48c0,0,6.67,7.12,11.39,6.37s16-9,22.7-25.85C-956.41,898.54-943.67,882.43-947.42,870.82Zm-37.08,37.83c-9.74,4.12,4.87-36,10.49-33s5.62,5.24,5.62,3,3-5.62-6.74-18.35c0,0,13.49-4.5,15,0S-974.76,904.53-984.5,908.65Z" transform="translate(1218.49 -548.9)"/><path class="cls-1" d="M-746,706.24s4.35-9.6,3.48-12.64-17.41-22.19-18.72-15.23-22.2,78.78-20,81.39,13.93,5.66,17,0,28.73-45.27,28.73-42.65-11.32,32.21-8.7,37.87S-722.9,768-720.29,767.6s22.63-35.69,23.07-39.17-3.92-11.94-6.53-6.19-16.1,23.16-16.1,23.16,10.45-37,12.62-42.65-15.23-25.68-16.54-21.76-0.44,4.45-.87,7.67-27,33.59-27,33.59Z" transform="translate(1218.49 -548.9)"/><path class="cls-1" d="M-760.17,677.92c-8.22,10.31-21.21,19.6-21.21,19.6l2.34,7,17.7-15.6Z" transform="translate(1218.49 -548.9)"/><path class="cls-1" d="M-1031,667.74s-70,1.22-134.64,34.43c0,0-4.45,5.75-7.32-2.35s-12.81-15.69-1.57-21.18,24-12.54,69.15-21.71,85.42-4.45,84.37,0S-1031,667.74-1031,667.74Z" transform="translate(1218.49 -548.9)"/><path class="cls-1" d="M-961.9,848.21s-54.25.95-104.29,26.67c0,0-3.44,4.46-5.67-1.82s-9.93-12.15-1.22-16.41,18.61-9.71,53.56-16.81,66.16-3.44,65.35,0S-961.9,848.21-961.9,848.21Z" transform="translate(1218.49 -548.9)"/><path class="cls-1" d="M-1042,812.42s-51,14.35-58,14.67-20.09-1.91-21-5.74-3.19-18,1.28-19.2,96.63-24.49,139.69-27.36,52.62-6.38,52,0-2.87,16.58-4.46,16.27-25.2-3.32-108.12,11.1c0,0-31.57,5.49-28.07,5.81S-1040.11,808.91-1042,812.42Z" transform="translate(1218.49 -548.9)"/><path class="cls-1" d="M-958.74,867.6s25.26-21,26.89-23.39,6.08-14.94,10.06-13.55,10.52,13.07,9.59,15.07-11.46,18.6-9.82,18.36,7.9-6.31,9.91-6.08,3.89,2.57,4.82,2.1,2.1-3.51,4.91-2.81,13.1,13.47,10.76,14.34-33.44,14-36.71,33.37c0,0-1.4,8.89.7,6.55s28.06-18.71,28.06-18.71l0.23,8s-24.09,21.18-27.36,21.46-18.47-7.88-18.47-14.32,1.17-18.27,16.37-31.53c0,0-12.16-4.67-12.86-12.86l-14.27,10.59Z" transform="translate(1218.49 -548.9)"/><path class="cls-1" d="M-855.46,854.13s-26.5,8.47-29.43,30.68,0.49,19.73,2.93,18.77S-851,887-851,887v6.35s-25.14,21.75-32.22,21.25-23.68.25-16.6-29.9,28.07-51.88,40.76-45.29,11,18.24,11,18.24-11.23,20.81-40,39.6l-1.21-6.83S-861.74,869-855.46,854.13Z" transform="translate(1218.49 -548.9)"/><path class="cls-1" d="M-801.51,861.68s4-13.25-2.21-17.38-20-7.06-26.8-2.21-30.92,46.68-20.62,59.64,19.5,13,24.18,9.73,24.12-21.8,24.12-21.8l-0.29-5.89s-25.62,19.89-27.09,20.55-4.12-14.63,2.06-27.9,12.66-24.76,15.31-23c0,0,0,8-2.95,10.9s8.54,5.3,11.49,2.06S-801.51,861.68-801.51,861.68Z" transform="translate(1218.49 -548.9)"/><path class="cls-1" d="M-599.44,856.57s-19.14-15.2-69.26-19.61-68.89,2.31-68.89,2.31-6.49,4.65-6.58-2.15-3.82-15,4.35-16.17,60.89-5.35,95.28,3,64,22.36,63.52,24.33-1.63,6.38-3.33,5.71-5.13-1.51-3.29.18,4.84,2,.9,3.61S-591.7,861.14-599.44,856.57Z" transform="translate(1218.49 -548.9)"/><path class="cls-1" d="M-662.07,934.05s15.6-22.42,21.82-27.09,4.32-9.34,2.25-9-22.31,15.56-26.11,25.94S-662.07,934.05-662.07,934.05Z" transform="translate(1218.49 -548.9)"/><path class="cls-1" d="M-889.25,951.11s-123.73,13-219.47,53.4c0,0-12.16-15.29-4.3-18.6s84-41.63,211.18-52.49S-666,957-666.91,961.49s-1.83,19.48-9.95,16.89-34.69-6.46-70.5-.55a15,15,0,0,0-8.86-.55c-5.35,1.11-2.4-1.48,3.51-2.58s8.12-.55,5.91-1.11c0,0-5.91-.18.92-3.88,3.41-1.84,2.77-3.42-2.77-1.8,0,0-10.7,2.54-20.67,4.39,0,0-1.11-1.48-5-.18s-11.26,2-11.26,2-2.58-1.48,6.64-4.24,53.15-10.7,55.55-11.63,2.4-2-1.66-2.4S-821.19,943.4-889.25,951.11Z" transform="translate(1218.49 -548.9)"/><path class="cls-1" d="M-963,612.09s19.77-27.75,8.9-29.94-16.07,5-16.07,5,1.68,25.91,0,31.29S-967.13,618.32-963,612.09Z" transform="translate(1218.49 -548.9)"/><path class="cls-2" d="M-1185.82,606s-35.07,8.83-28.71,9.76,26.35,3.57,26.35,3.57-0.39-6.63,19.31-8.66Z" transform="translate(1218.49 -548.9)"/><path class="cls-2" d="M-1130.24,597.77s22.48-3.09,29.08-2.77l-4.47,11.78s-26.56-1.51-31,11.84Z" transform="translate(1218.49 -548.9)"/><path class="cls-2" d="M-1153.5,696.32s16.2-7.7,28.07-11l-1.09,11.45s-27.91,9.33-29.64,23C-1156.16,719.85-1154.15,697.66-1153.5,696.32Z" transform="translate(1218.49 -548.9)"/><path class="cls-2" d="M-1072.8,672.28s-7.43,7-7.39,7.78,17.36-4.43,31.75-3.89c0,0-2.76-5.55-4.52-6.72C-1053,669.45-1072.07,672.16-1072.8,672.28Z" transform="translate(1218.49 -548.9)"/><path class="cls-2" d="M-1084.53,741.9s-1.46,18.33,1.52,19.39,2.83,1.66,4.5.89c0,0-1.3-17.71,10.51-36C-1068,726.21-1081.81,744.12-1084.53,741.9Z" transform="translate(1218.49 -548.9)"/><path class="cls-2" d="M-1041.77,748.44s-4.45,13.45-3.15,13.62,7.23-5,7.23-5,3.49-12.24,11.89-21.32C-1025.8,735.79-1041.47,750.15-1041.77,748.44Z" transform="translate(1218.49 -548.9)"/><path class="cls-2" d="M-986.87,707.51s-10.52,2-11,1.22l-5,5s8.66,0.81,10.79-.71Z" transform="translate(1218.49 -548.9)"/><path class="cls-2" d="M-966.19,677.09s8.08-2.39,6,1.56-4.15,4.89-4.15,4.89-9.4,2.07-13.7,5.37Z" transform="translate(1218.49 -548.9)"/><path class="cls-2" d="M-968.95,651.68" transform="translate(1218.49 -548.9)"/><path class="cls-2" d="M-946.8,723.5s3,10.05,1.69,12.57a14.33,14.33,0,0,1-3.37,4.1l-0.19,3.77s7.07-2.68,7.57-6.36-5.56-15.26-5.56-15.26Z" transform="translate(1218.49 -548.9)"/><path class="cls-2" d="M-842.71,733.75s16.08,14.28,20.34,1.08c0,0-1.48,5.78-.91,7.87,0,0-7.79,4.47-16.14,3.24C-839.42,745.94-843.33,738.78-842.71,733.75Z" transform="translate(1218.49 -548.9)"/><polygon class="cls-2" points="466.86 173.34 455.2 209.2 467.24 190.25 480.53 157.34 466.86 173.34"/><path class="cls-2" d="M-721.55,713.86" transform="translate(1218.49 -548.9)"/><path class="cls-2" d="M-719.85,745.4s-5.18,21.8-1.44,22.14c0,0,.83,1.37,3.72-2.94,0,0,.67-14.6,9.54-35.34s-0.32,0-.32,0S-719.63,746.13-719.85,745.4Z" transform="translate(1218.49 -548.9)"/><path class="cls-2" d="M-920.86,674.53s7.36-39.41,10.31-45l9.42-17.21s-12.42,41.9-9.86,48.49Z" transform="translate(1218.49 -548.9)"/><path class="cls-2" d="M-911.25,707.82s19.65-29.41,26.51-27.6l-3.32,10.16s-23.13,23.19-29.2,39.52Z" transform="translate(1218.49 -548.9)"/><path class="cls-2" d="M-1068.82,808s-54.43,11.16-52.3,13.39,7.13,6.63,21,5.74c0,0,1.79-7.59,43.44-18.38Z" transform="translate(1218.49 -548.9)"/><path class="cls-2" d="M-1036.23,801.37l-3.5,11.17s2.42-6.52,18.45-8.38l1.88-5.56Z" transform="translate(1218.49 -548.9)"/><path class="cls-2" d="M-1052.26,868.37s16-6.57,17-6.42l-0.86,7.49s-16.36,6.58-18.44,16.89C-1054.6,886.33-1052.52,868.08-1052.26,868.37Z" transform="translate(1218.49 -548.9)"/><path class="cls-2" d="M-1004.35,898.63s13.72,12.28,17.35.93c0,0-1.07,4.68-.72,6.64,0,0-6.7,4-13.82,2.92C-1001.55,909.12-1004.88,903-1004.35,898.63Z" transform="translate(1218.49 -548.9)"/><path class="cls-2" d="M-922,864.09s-7.07,12.94-4.14,10.24c3.15-2.9,7.16-7.45,9.21-9.1,3.43-2.76,7.64-5.92,7.64-5.92s-2.52-2.9-6.74.71S-922,864.09-922,864.09Z" transform="translate(1218.49 -548.9)"/><path class="cls-2" d="M-928.42,911.89s0.63,10.59,2.12,10.27,4.3-2.67,4.3-2.67-2.25-8.22,8.6-17.78Z" transform="translate(1218.49 -548.9)"/><path class="cls-2" d="M-886,895.87c-0.36.22,0.56-8.57,0.79-8.77s12.41-11,15.17-13.83c0,0-8.71,13-6.28,15.49C-876.29,888.76-882.7,893.92-886,895.87Z" transform="translate(1218.49 -548.9)"/><path class="cls-2" d="M-855.46,854.13s7.25-1.8,7.43,3.52l-2.27,3.64a14.57,14.57,0,0,0-12.94,4.61S-855.91,856.53-855.46,854.13Z" transform="translate(1218.49 -548.9)"/><path class="cls-2" d="M-813.65,853.27s12.72-7.07,13.06-3.8c0,0,.36,3,0.34,3.8,0,0-10.11,2.68-15.14,10.6C-815.4,863.87-811.58,852.88-813.65,853.27Z" transform="translate(1218.49 -548.9)"/><path class="cls-2" d="M-978.9,849.53" transform="translate(1218.49 -548.9)"/><path class="cls-2" d="M-988.91,856.09a48.7,48.7,0,0,1,10-6.56s15.39-.09,17-1.32l1.84-1.42s2,0.86,4.76,5.07c0,0-1.39,3.34-11.25,4S-988.91,856.09-988.91,856.09Z" transform="translate(1218.49 -548.9)"/><path class="cls-2" d="M-760.09,855.62s3.35,6.34,2.06,8.26-5.38,5.14-6.24,5.85-4.41,3.2-4.41,3.2a31.15,31.15,0,0,0,4-7C-763.22,862.19-760.09,855.62-760.09,855.62Z" transform="translate(1218.49 -548.9)"/><path class="cls-2" d="M-793.4,900.25s-3.78,12.19-1.58,13l1.58,1.26s2.4-10.81,15.41-29.14C-778,885.39-792,903.22-793.4,900.25Z" transform="translate(1218.49 -548.9)"/><path class="cls-2" d="M-721,881.33s-7.09,1.2-7.95-.52l-6.22,5.68s7.07,1.14,8.72,0Z" transform="translate(1218.49 -548.9)"/><path class="cls-2" d="M-705.06,858.25s8.69-3.05,6.83.47a10.12,10.12,0,0,1-4.13,4.54s-9,1.64-12.83,4.59Z" transform="translate(1218.49 -548.9)"/><path class="cls-2" d="M-670.42,836.81s14.86,1.63,15.7,1.75l-2.21,8.73s-14-3.41-17.81,5.62Z" transform="translate(1218.49 -548.9)"/></svg>