<?xml version="1.0" encoding="utf-8"?>
<!DOCTYPE svg PUBLIC "-//W3C//DTD SVG 1.1//EN" "http://www.w3.org/Graphics/SVG/1.1/DTD/svg11.dtd">
<svg xmlns="http://www.w3.org/2000/svg" xmlns:xlink="http://www.w3.org/1999/xlink" version="1.1" viewBox="0 0 512 512" enable-background="new 0 0 512 512" width="512px" height="512px">
  <g>
    <g>
      <path d="m494.6,428.9l-141.3-233.5c-0.5-0.8 0.4-105.4 0.4-105.4h-194.3c0,0-0.2,104.6-0.7,105.4l-141.3,233.5c-8.5,14-8.5,30.1-0.1,44 10.1,16.8 30.7,27.3 53.6,27.3h370.1c23,0 43.5-10.4 53.6-27.3 8.5-14 8.5-30 0-44z" fill="#FFFFFF"/>
      <path d="m152.3,50.9h207.4c11.3,0 20.4-8.7 20.4-19.5 0-10.8-9.1-19.5-20.4-19.5h-207.4c-11.3,0-20.4,8.7-20.4,19.5 0,10.8 9.1,19.5 20.4,19.5z" fill="#FFFFFF"/>
    </g>
  </g>
</svg>
