<svg id="Layer_1" data-name="Layer 1" xmlns="http://www.w3.org/2000/svg" viewBox="0 0 103.24 95.23"><defs><style>.cls-1{fill:#f2f2f2;stroke:#454545;stroke-miterlimit:10;stroke-width:2px;}</style></defs><title>umbr</title><path class="cls-1" d="M1417.82-256.87s-25.64-33.22-71.05-18.55c0,0,21.44,13,21,32.53,0,0,24.11,9.72,33.91,34.25,0,0,22.83.44,34.31,21.35C1436-187.29,1452.07-224.27,1417.82-256.87Z" transform="translate(-1337.53 280.16)"/><path class="cls-1" d="M1367.79-242.89s23.67-23.41,50-14c0,0,6.61,23.58-16.12,48.23C1401.7-208.64,1392.75-231.76,1367.79-242.89Z" transform="translate(-1337.53 280.16)"/><rect class="cls-1" x="1418.04" y="-262.82" width="4.4" height="6.7" transform="translate(-1100.94 -805.98) rotate(45.28)"/><path class="cls-1" d="M1387-229.69L1350-193s-3.32,3.44-5.83.9,2.1-6.54,3.74-8l-3.24-3.27s-10.67,7-3.91,14.66c3.51,4,7.48,3.77,12.34-1.19l37-36.65Z" transform="translate(-1337.53 280.16)"/></svg>